# xmcd CD database file generated by freedbAccess_ocx
#
# Track frame offsets:
#       150
#       12280
#       22250
#       35582
#       50040
#       62692
#       76105
#       85337
#       98717
#       109835
#       121622
#       131450
#
# Disc length: 1911 seconds
#
# Revision: 0
# Processed by: cddbd v1.4PL0 Copyright (c) Steve Scherf et al.
# Submitted via: CDnGo 1.95
#
DISCID=9407750c
DTITLE=Tammy Wynette - The Best Of Tammy Wynette
DYEAR=1975
DGENRE=Country
TTITLE0=Stand By Your Man
TTITLE1=Lonely Street
TTITLE2=D-I-V-O-R-C-E
TTITLE3=Gentle On My Mind
TTITLE4=Take Me To Your World
TTITLE5=Almost Persuaded
TTITLE6=Your Good Girl's Gonna Go Bad
TTITLE7=Apartment Number Nine
TTITLE8=Hey Good Looking
TTITLE9=I Don't Wanna Play House
TTITLE10=My Arms Stay Open Late
TTITLE11=There Goes My Everything
EXTD=
EXTT0=
EXTT1=
EXTT2=
EXTT3=
EXTT4=
EXTT5=
EXTT6=
EXTT7=
EXTT8=
EXTT9=
EXTT10=
EXTT11=
PLAYORDER=
